<svg width="149" height="152" viewBox="0 0 149 152" fill="none" xmlns="http://www.w3.org/2000/svg">
    <path d="M5 68.2181V0H21.6854V68.2181H5ZM13.1487 14.2121V0H56.8671V14.2121H13.1487ZM13.1487 43.9283V30.3622H53.2455V43.9283H13.1487Z" fill="#001011" />
    <path d="M85.5614 68.2181V0H114.664C118.415 0 121.907 0.258402 125.011 0.904406C128.116 1.55041 130.832 2.32562 133.289 3.48842C135.618 4.65123 137.687 5.94324 139.369 7.62285C141.05 9.30246 142.214 11.1113 143.12 13.1785C143.896 15.2457 144.413 17.5713 144.413 20.1553C144.413 22.6102 144.025 24.6774 143.249 26.6154C142.473 28.5534 141.309 30.233 139.757 31.6542C138.205 33.0754 136.264 34.2382 133.936 35.1426C131.608 36.047 128.892 36.6931 125.787 37.0807V38.6311C129.668 39.0187 132.772 39.9231 134.971 41.2151C137.17 42.5071 138.851 44.3159 140.015 46.5123C141.179 48.7087 142.214 51.422 143.12 54.5228L147 68.0889H128.504L125.529 55.5564C124.882 52.8432 124.106 50.6468 122.942 49.0963C121.907 47.5459 120.484 46.5123 118.803 45.9955C117.121 45.3495 115.052 45.0911 112.594 45.0911H102.376V68.0889H85.6907L85.5614 68.2181ZM102.247 32.9462H113.5C117.768 32.9462 121.002 32.171 123.33 30.4914C125.658 28.8118 126.822 26.2278 126.822 22.7394C126.822 19.2509 125.788 16.7961 123.589 15.1165C121.39 13.4369 118.156 12.6617 113.888 12.6617H102.247V33.0754V32.9462Z" fill="#001011" />
    <path d="M0.646729 151.218V83H22.2473L51.4791 128.737H52.7726L51.7378 83H68.0352V151.218H48.5042L17.2028 102.897H16.0387L16.9441 151.218H0.646729Z" fill="#001011" />
    <path d="M85.4967 151.218V83H102.182V112.845C105.545 111.295 108.649 109.486 111.624 107.161C114.47 104.835 117.057 102.38 119.385 99.6669C121.713 96.9537 123.524 94.2405 124.947 91.3981C126.37 88.5556 127.534 85.7132 128.18 83H147.453C146.677 86.23 145.254 89.3308 143.443 92.6901C141.632 95.9201 139.304 99.1501 136.717 102.122C134.13 105.093 131.285 107.807 128.31 110.132C125.335 112.458 122.231 114.396 119.126 115.688V117.238C122.36 117.238 125.076 117.626 127.534 118.272C129.991 118.918 132.19 120.081 134.001 121.502C135.941 122.923 137.493 124.732 138.916 126.928C140.339 129.125 141.503 131.709 142.538 134.68L148.487 151.218H129.603L125.723 137.652C124.947 134.68 123.783 132.226 122.36 130.417C120.937 128.608 119.126 127.445 116.927 126.541C114.599 125.765 111.754 125.378 108.132 125.378H102.182V151.089H85.4967V151.218Z" fill="#001011" />
</svg>
